<?xml version="1.0" standalone="no"?><!DOCTYPE svg PUBLIC "-//W3C//DTD SVG 1.1//EN" "http://www.w3.org/Graphics/SVG/1.1/DTD/svg11.dtd"><svg t="1663896836782" class="icon" viewBox="0 0 1050 1024" version="1.1" xmlns="http://www.w3.org/2000/svg" p-id="1871" xmlns:xlink="http://www.w3.org/1999/xlink" width="205.078125" height="200"><path d="M62 62m163.46153848 0l596.1538459 0q163.46153848 0 163.46153848 163.46153848l0 573.07692305q0 163.46153848-163.46153848 163.46153847l-596.1538459 0q-163.46153848 0-163.46153848-163.46153847l0-573.07692305q0-163.46153848 163.46153848-163.46153848Z" fill="#00005B" p-id="1872"></path><path d="M435.24230732 600.46153877h-143.03846074l-29.37692372 90.26153789a7.28461582 7.28461582 0 0 1-7.43461525 5.57307686H182.94230761q-6.19230762 0-4.33461532-6.81153839l124.36153857-354.88461533c1.24230761-3.71538457 2.47692305-7.02692315 3.71923067-11.77692275a132.6076919 132.6076919 0 0 0 2.47692304-25.07692324 3.83076914 3.83076914 0 0 1 4.33461533-4.33461534h98.4538459q4.32692315 0 4.9538461 3.09615382l140.05384628 393.5961536q1.85384619 6.19230762-3.71923066 6.19230763h-80.49999991a5.72307715 5.72307715 0 0 1-6.19230761-4.33461534z m-120.50769199-76.37692325H412.57692266q-3.71538457-12.37692305-8.66538457-27.86538515-4.96538438-15.46923076-10.52692296-33.12692227l-11.1499998-35.29615429q-5.56923076-17.6500002-10.21538496-34.0576919-4.6461542-16.40000039-8.3576918-30.03461543h-0.61923076a500.41153828 500.41153828 0 0 1-13.00384599 49.53846094q-8.68076894 27.86538428-17.65384629 56.96923096-8.98076953 29.11538496-17.6461541 53.87307715zM600.30769239 690.40000039v-228.23846191q0-10.51923076-0.30769278-23.53076895-0.32307714-12.9999999-0.93076875-24.76923135c-0.41538428-7.83461513-0.83076943-15.11538487-1.23846152-19.66538407a3.67692276 3.67692276 0 0 1 0.61538467-3.71538458 5.05384629 5.05384629 0 0 1 3.71923066-1.23846152h61.81538467a13.84615371 13.84615371 0 0 1 6.19230761 1.23846152 5.83076953 5.83076953 0 0 1 3.09615381 4.33461534q1.23076934 3.71538457 2.78461582 8.36153789a63.56153848 63.56153848 0 0 1 2.16923027 12.54230771 124.40384648 124.40384648 0 0 1 40.86923116-23.83846084 140.66923096 140.66923096 0 0 1 46.44230712-7.74230801 117.79615372 117.79615372 0 0 1 36.22307696 5.88461572 91.51153857 91.51153857 0 0 1 58.51923135 56.96923008c6.19230762 15.8961542 8.61923057 36.43846172 8.61923057 61.61538516v181.79230781q0 5.57692295-4.9538461 5.57692295l-72.35769287 0.63846123a5.46923057 5.46923057 0 0 1-6.19230762-6.19230762v-172.48461504a85.37307714 85.37307714 0 0 0-7.47307705-33.48461602 44.2461542 44.2461542 0 0 0-15.79230703-19.19230751 46.59999961 46.59999961 0 0 0-26.31538477-6.81538447 77.042308 77.042308 0 0 0-29.10384667 5.26538495 73.41538448 73.41538448 0 0 0-22.91153818 14.54999942v212.13846211q0 5.57692295-4.9538461 5.57692295h-72.96153838a4.92307734 4.92307734 0 0 1-5.57692295-5.57692295z" fill="#9999FF" p-id="1873"></path></svg>