<?xml version="1.0" standalone="no"?><!DOCTYPE svg PUBLIC "-//W3C//DTD SVG 1.1//EN" "http://www.w3.org/Graphics/SVG/1.1/DTD/svg11.dtd"><svg t="1663901267119" class="icon" viewBox="0 0 1024 1024" version="1.1" xmlns="http://www.w3.org/2000/svg" p-id="13505" xmlns:xlink="http://www.w3.org/1999/xlink" width="200" height="200"><path d="M912 144v416h-179.52v-32h147.52v-352h-736v352h175.488v32H112v-416z" fill="#646E7F" p-id="13506"></path><path d="M400.544 816.704l0.704 3.584a21.344 21.344 0 0 0 37.056 7.36l58.688-72.48 75.68 130.24c5.888 10.112 18.88 13.6 29.056 7.776l91.52-52.512 3.2-2.24a21.344 21.344 0 0 0 4.672-27.008l-74.528-128.192 91.744-16.064a21.344 21.344 0 0 0 8.64-38.432L385.6 387.968a21.344 21.344 0 0 0-33.472 19.936l48.384 408.8z" fill="#00C296" p-id="13507"></path></svg>