<?xml version="1.0" standalone="no"?><!DOCTYPE svg PUBLIC "-//W3C//DTD SVG 1.1//EN" "http://www.w3.org/Graphics/SVG/1.1/DTD/svg11.dtd"><svg t="1735540975053" class="icon" viewBox="0 0 1024 1024" version="1.1" xmlns="http://www.w3.org/2000/svg" p-id="4303" xmlns:xlink="http://www.w3.org/1999/xlink" width="200" height="200"><path d="M0 0h1024v1024H0z" fill="#000000" p-id="4304"></path><path d="M0 0h1024v1024H0z" fill="#000000" p-id="4305"></path><path d="M855.192 515.528c-3.44 6.592-7.16 12.824-10.456 19.416a24.664 24.664 0 0 1-25.36 14.32 17.184 17.184 0 0 0-11.104 3.584 754.056 754.056 0 0 1-29.944 18.84 52.528 52.528 0 0 1-45.488 2.44 212.848 212.848 0 0 0-76.16-14.328 83.816 83.816 0 0 0-67.76 30.872 106.304 106.304 0 0 0-15.264 30.728c-8.88 21.992-16.48 153.152-16.48 186.6 0 0-126.216-24.496-244.64-145.696l30.88-81.088H246.704l69.92-74.136H196.272l69.992-74.072H152l127.232-134.88a293.008 293.008 0 0 1 141.624-77.576c50.864-8.736 63.968-3.792 95.352 5.52l17.408 5.224 6.08 1.792 22.216 6.8c14.536 3.944 29.84 4.16 44.48 0.648a81.456 81.456 0 0 1 59.104 7.168 59.032 59.032 0 0 1 29.376 44.56 52.208 52.208 0 0 0 25.856 39.32 425.88 425.88 0 0 0 66.768 29.44c16.264 6.16 32.52 13.176 48.64 19.48a48.776 48.776 0 0 1 20.488 14.76c4.608 5.536 7.36 12.376 7.88 19.552 1.008 14.32 2.656 28.656 3.368 42.984a109.136 109.136 0 0 1-12.68 57.52v0.208z" fill="#FFFFFF" p-id="4306"></path></svg>