<?xml version="1.0" standalone="no"?><!DOCTYPE svg PUBLIC "-//W3C//DTD SVG 1.1//EN" "http://www.w3.org/Graphics/SVG/1.1/DTD/svg11.dtd"><svg t="1663899369434" class="icon" viewBox="0 0 1024 1024" version="1.1" xmlns="http://www.w3.org/2000/svg" p-id="6373" xmlns:xlink="http://www.w3.org/1999/xlink" width="200" height="200"><path d="M728.96 407.466667l-19.626667 195.413333-15.786666 158.933333L669.44 1002.666667H354.56l-24.106667-240.853334-15.786666-158.933333-19.626667-195.413333z" fill="#F33251" p-id="6374"></path><path d="M295.04 407.466667l59.52 595.2h106.026667L401.066667 407.466667z" fill="#B6253D" p-id="6375"></path><path d="M586.666667 40.106667l-17.28-17.28c-2.133333-2.133333-5.333333-2.133333-7.466667 0l-55.253333 55.253333c-1.706667 1.706667-3.2 3.626667-4.693334 5.546667-4.906667 7.04-7.68 15.36-7.68 24.106666v160.853334h34.986667v-157.866667c0-3.626667 1.493333-7.04 4.053333-9.6l53.333334-53.546667c2.133333-1.92 2.133333-5.333333 0-7.466666z" fill="#EDEEEF" p-id="6376"></path><path d="M507.733333 112.426667c0-8.533333 2.56-17.066667 7.68-24.106667 1.28-1.92 2.986667-3.84 4.693334-5.546667l54.613333-54.613333-5.333333-5.333333c-2.133333-2.133333-5.333333-2.133333-7.466667 0l-55.253333 55.253333c-1.706667 1.706667-3.2 3.626667-4.693334 5.546667-4.906667 7.04-7.68 15.36-7.68 24.106666v160.853334h13.226667V112.426667z" fill="#D8DADC" p-id="6377"></path><path d="M663.253333 315.52H360.746667c-4.906667 0-8.32-5.333333-6.613334-10.666667l14.08-44.16c3.413333-10.88 12.8-18.346667 23.04-18.346666h241.493334c10.453333 0 19.626667 7.253333 23.04 18.346666l14.08 44.16c1.706667 5.12-1.706667 10.666667-6.613334 10.666667z" fill="#EDEEEF" p-id="6378"></path><path d="M644.693333 285.653333l-8.32-23.04c-2.133333-5.76-3.626667-9.6-3.626666-9.6h-11.093334c0.213333 0.213333 0.213333 0.64 0.426667 0.853334l8.32 23.04c1.066667 2.773333-1.066667 5.546667-3.84 5.546666h-162.133333c-1.92 0-3.84 1.28-4.48 3.2-1.066667 2.773333 1.066667 5.546667 3.84 5.546667h177.066666c2.773333 0 4.906667-2.773333 3.84-5.546667z" fill="#FFFFFF" p-id="6379"></path><path d="M380.8 274.56c3.413333-10.88 12.8-18.346667 23.04-18.346667h241.493333c3.413333 0 6.613333 0.853333 9.6 2.346667-4.053333-9.813333-12.586667-16.213333-22.186666-16.213333H391.253333c-10.453333 0-19.626667 7.253333-23.04 18.346666l-14.08 44.16c-1.706667 5.12 1.706667 10.666667 6.613334 10.666667h7.04l13.013333-40.96z" fill="#D8DADC" p-id="6380"></path><path d="M749.653333 407.466667H274.346667c-7.68 0-13.013333-7.68-10.453334-14.933334l21.973334-61.653333c5.546667-15.36 20.053333-25.6 36.266666-25.6h379.306667c16.213333 0 30.933333 10.24 36.266667 25.6l22.186666 61.653333c2.773333 7.253333-2.56 14.933333-10.24 14.933334z" fill="#EDEEEF" p-id="6381"></path><path d="M728.32 377.386667l-14.933333-41.386667c-3.626667-10.24-6.613333-17.28-6.613334-17.28h-20.053333c0.213333 0.426667 0.426667 1.066667 0.64 1.493333l14.933333 41.386667c1.706667 4.906667-1.92 10.026667-7.04 10.026667h-292.266666c-3.626667 0-6.826667 2.346667-8.106667 5.76-1.706667 4.906667 1.92 10.026667 7.04 10.026666h319.36c5.333333-0.213333 8.96-5.333333 7.04-10.026666z" fill="#FFFFFF" p-id="6382"></path><path d="M297.813333 347.306667c5.546667-15.36 20.053333-25.6 36.266667-25.6h379.306667c8.96 0 17.493333 3.2 24.106666 8.533333-5.76-14.933333-20.053333-24.96-36.053333-24.96H322.346667c-16.213333 0-30.933333 10.24-36.266667 25.6L263.893333 392.533333c-2.56 7.253333 2.773333 14.933333 10.453334 14.933334h2.133333l21.333333-60.16z" fill="#D8DADC" p-id="6383"></path><path d="M709.333333 602.88l-15.786666 158.933333H330.453333l-15.786666-158.933333z" fill="#FFFF00" p-id="6384"></path><path d="M314.666667 602.88l15.786666 158.933333h105.813334l-15.786667-158.933333z" fill="#E0DA03" p-id="6385"></path><path d="M531.2 92.373333l-5.333333-5.333333c-0.64-0.64-0.64-1.493333 0-2.133333l39.04-39.253334c0.64-0.64 1.493333-0.64 2.133333 0l5.333333 5.333334c0.64 0.64 0.64 1.493333 0 2.133333L533.333333 92.373333c-0.64 0.64-1.493333 0.64-2.133333 0zM521.173333 129.28h-7.466666c-0.853333 0-1.493333-0.64-1.493334-1.493333v-14.506667c0-0.853333 0.64-1.493333 1.493334-1.493333h7.466666c0.853333 0 1.493333 0.64 1.493334 1.493333v14.506667c0 0.64-0.853333 1.493333-1.493334 1.493333z" fill="#FFFFFF" p-id="6386"></path></svg>